<svg width="51" height="50" viewBox="0 0 51 50" fill="none" xmlns="http://www.w3.org/2000/svg">
<path d="M47.3438 19.3795C46.5022 18.5 45.6317 17.5938 45.3036 16.7969C45 16.067 44.9821 14.8571 44.9643 13.6853C44.9308 11.5067 44.8951 9.03795 43.1786 7.32143C41.4621 5.60491 38.9933 5.5692 36.8147 5.53571C35.6429 5.51786 34.433 5.5 33.7031 5.19643C32.9085 4.8683 32 3.99777 31.1205 3.15625C29.5804 1.67634 27.8304 0 25.5 0C23.1696 0 21.4219 1.67634 19.8795 3.15625C19 3.99777 18.0938 4.8683 17.2969 5.19643C16.5714 5.5 15.3571 5.51786 14.1853 5.53571C12.0067 5.5692 9.53795 5.60491 7.82143 7.32143C6.10491 9.03795 6.08036 11.5067 6.03571 13.6853C6.01786 14.8571 6 16.067 5.69643 16.7969C5.3683 17.5915 4.49777 18.5 3.65625 19.3795C2.17634 20.9196 0.5 22.6696 0.5 25C0.5 27.3304 2.17634 29.0781 3.65625 30.6205C4.49777 31.5 5.3683 32.4062 5.69643 33.2031C6 33.933 6.01786 35.1429 6.03571 36.3147C6.0692 38.4933 6.10491 40.9621 7.82143 42.6786C9.53795 44.3951 12.0067 44.4308 14.1853 44.4643C15.3571 44.4821 16.567 44.5 17.2969 44.8036C18.0915 45.1317 19 46.0022 19.8795 46.8438C21.4196 48.3237 23.1696 50 25.5 50C27.8304 50 29.5781 48.3237 31.1205 46.8438C32 46.0022 32.9062 45.1317 33.7031 44.8036C34.433 44.5 35.6429 44.4821 36.8147 44.4643C38.9933 44.4308 41.4621 44.3951 43.1786 42.6786C44.8951 40.9621 44.9308 38.4933 44.9643 36.3147C44.9821 35.1429 45 33.933 45.3036 33.2031C45.6317 32.4085 46.5022 31.5 47.3438 30.6205C48.8237 29.0804 50.5 27.3304 50.5 25C50.5 22.6696 48.8237 20.9219 47.3438 19.3795ZM44.7656 28.1496C43.6964 29.2656 42.5893 30.4196 42.0022 31.8371C41.4397 33.1987 41.4152 34.7545 41.3929 36.2612C41.3705 37.8237 41.346 39.4598 40.6518 40.1518C39.9576 40.8438 38.3326 40.8705 36.7612 40.8929C35.2545 40.9152 33.6987 40.9397 32.3371 41.5022C30.9196 42.0893 29.7656 43.1964 28.6496 44.2656C27.5335 45.3348 26.3929 46.4286 25.5 46.4286C24.6071 46.4286 23.4576 45.3304 22.3504 44.2656C21.2433 43.2009 20.0804 42.0893 18.6629 41.5022C17.3013 40.9397 15.7455 40.9152 14.2388 40.8929C12.6763 40.8705 11.0402 40.846 10.3482 40.1518C9.65625 39.4576 9.62946 37.8326 9.60714 36.2612C9.58482 34.7545 9.56027 33.1987 8.99777 31.8371C8.41071 30.4196 7.30357 29.2656 6.23437 28.1496C5.16518 27.0335 4.07143 25.8929 4.07143 25C4.07143 24.1071 5.16964 22.9576 6.23437 21.8504C7.29911 20.7433 8.41071 19.5804 8.99777 18.1629C9.56027 16.8013 9.58482 15.2455 9.60714 13.7388C9.62946 12.1763 9.65402 10.5402 10.3482 9.84821C11.0424 9.15625 12.6674 9.12946 14.2388 9.10714C15.7455 9.08482 17.3013 9.06027 18.6629 8.49777C20.0804 7.91071 21.2344 6.80357 22.3504 5.73437C23.4665 4.66518 24.6071 3.57143 25.5 3.57143C26.3929 3.57143 27.5424 4.66964 28.6496 5.73437C29.7567 6.79911 30.9196 7.91071 32.3371 8.49777C33.6987 9.06027 35.2545 9.08482 36.7612 9.10714C38.3237 9.12946 39.9598 9.15402 40.6518 9.84821C41.3438 10.5424 41.3705 12.1674 41.3929 13.7388C41.4152 15.2455 41.4397 16.8013 42.0022 18.1629C42.5893 19.5804 43.6964 20.7344 44.7656 21.8504C45.8348 22.9665 46.9286 24.1071 46.9286 25C46.9286 25.8929 45.8304 27.0424 44.7656 28.1496ZM35.692 18.3795C35.858 18.5453 35.9897 18.7423 36.0796 18.959C36.1694 19.1758 36.2157 19.4082 36.2157 19.6429C36.2157 19.8775 36.1694 20.1099 36.0796 20.3267C35.9897 20.5435 35.858 20.7404 35.692 20.9062L23.192 33.4062C23.0261 33.5723 22.8292 33.704 22.6124 33.7939C22.3956 33.8837 22.1632 33.93 21.9286 33.93C21.6939 33.93 21.4615 33.8837 21.2447 33.7939C21.028 33.704 20.831 33.5723 20.6652 33.4062L15.308 28.0491C14.973 27.714 14.7847 27.2596 14.7847 26.7857C14.7847 26.3118 14.973 25.8574 15.308 25.5223C15.6431 25.1872 16.0976 24.999 16.5714 24.999C17.0453 24.999 17.4998 25.1872 17.8348 25.5223L21.9286 29.6183L33.1652 18.3795C33.331 18.2134 33.528 18.0817 33.7448 17.9919C33.9615 17.902 34.1939 17.8557 34.4286 17.8557C34.6632 17.8557 34.8956 17.902 35.1124 17.9919C35.3292 18.0817 35.5261 18.2134 35.692 18.3795Z" fill="#00CF78"/>
</svg>
