<svg width="25" height="20" viewBox="0 0 25 20" fill="none" xmlns="http://www.w3.org/2000/svg">
<path d="M24.0385 0.384644H0.961538C0.706523 0.384644 0.461951 0.485948 0.281628 0.666272C0.101305 0.846595 0 1.09117 0 1.34618V17.6923C0 18.2024 0.202609 18.6915 0.563256 19.0522C0.923903 19.4128 1.41305 19.6154 1.92308 19.6154H23.0769C23.587 19.6154 24.0761 19.4128 24.4367 19.0522C24.7974 18.6915 25 18.2024 25 17.6923V1.34618C25 1.09117 24.8987 0.846595 24.7184 0.666272C24.538 0.485948 24.2935 0.384644 24.0385 0.384644ZM21.5661 2.30772L12.5 10.619L3.43389 2.30772H21.5661ZM23.0769 17.6923H1.92308V3.53248L11.8498 12.6322C12.0272 12.7951 12.2592 12.8854 12.5 12.8854C12.7408 12.8854 12.9728 12.7951 13.1502 12.6322L23.0769 3.53248V17.6923Z" fill="#860010"/>
</svg>
