<svg width="94" height="110" viewBox="0 0 94 110" fill="none" xmlns="http://www.w3.org/2000/svg">
<g filter="url(#filter0_bd_45_642)">
<rect x="40" y="20" width="30" height="30" rx="15" fill="#BE0017"/>
<rect x="40.5" y="20.5" width="29" height="29" rx="14.5" stroke="#860010"/>
<path d="M63 35C63 35.1768 62.9298 35.3464 62.8047 35.4714C62.6797 35.5964 62.5101 35.6667 62.3333 35.6667H55.6667V42.3333C55.6667 42.5101 55.5964 42.6797 55.4714 42.8047C55.3464 42.9298 55.1768 43 55 43C54.8232 43 54.6536 42.9298 54.5286 42.8047C54.4036 42.6797 54.3333 42.5101 54.3333 42.3333V35.6667H47.6667C47.4899 35.6667 47.3203 35.5964 47.1953 35.4714C47.0702 35.3464 47 35.1768 47 35C47 34.8232 47.0702 34.6536 47.1953 34.5286C47.3203 34.4036 47.4899 34.3333 47.6667 34.3333H54.3333V27.6667C54.3333 27.4899 54.4036 27.3203 54.5286 27.1953C54.6536 27.0702 54.8232 27 55 27C55.1768 27 55.3464 27.0702 55.4714 27.1953C55.5964 27.3203 55.6667 27.4899 55.6667 27.6667V34.3333H62.3333C62.5101 34.3333 62.6797 34.4036 62.8047 34.5286C62.9298 34.6536 63 34.8232 63 35Z" fill="#FFF4F4"/>
</g>
<defs>
<filter id="filter0_bd_45_642" x="0" y="-20" width="110" height="130" filterUnits="userSpaceOnUse" color-interpolation-filters="sRGB">
<feFlood flood-opacity="0" result="BackgroundImageFix"/>
<feGaussianBlur in="BackgroundImageFix" stdDeviation="20"/>
<feComposite in2="SourceAlpha" operator="in" result="effect1_backgroundBlur_45_642"/>
<feColorMatrix in="SourceAlpha" type="matrix" values="0 0 0 0 0 0 0 0 0 0 0 0 0 0 0 0 0 0 127 0" result="hardAlpha"/>
<feOffset dy="20"/>
<feGaussianBlur stdDeviation="20"/>
<feColorMatrix type="matrix" values="0 0 0 0 0 0 0 0 0 0 0 0 0 0 0 0 0 0 0.15 0"/>
<feBlend mode="normal" in2="effect1_backgroundBlur_45_642" result="effect2_dropShadow_45_642"/>
<feBlend mode="normal" in="SourceGraphic" in2="effect2_dropShadow_45_642" result="shape"/>
</filter>
</defs>
</svg>
