<svg width="19" height="20" viewBox="0 0 19 20" fill="none" xmlns="http://www.w3.org/2000/svg">
<path id="Vector" d="M18.5606 5.25378L14.3718 1.06409C14.2325 0.924771 14.0671 0.814251 13.8851 0.738847C13.7031 0.663444 13.508 0.624634 13.311 0.624634C13.114 0.624634 12.9189 0.663444 12.7369 0.738847C12.5549 0.814251 12.3895 0.924771 12.2503 1.06409L0.689939 12.6253C0.550045 12.7641 0.439133 12.9293 0.363651 13.1114C0.288169 13.2934 0.249622 13.4886 0.250252 13.6857V17.8753C0.250252 18.2732 0.408287 18.6547 0.689591 18.936C0.970896 19.2173 1.35243 19.3753 1.75025 19.3753H5.93994C6.13699 19.376 6.33221 19.3374 6.51424 19.2619C6.69626 19.1865 6.86147 19.0756 7.00025 18.9357L18.5606 7.37534C18.6999 7.23605 18.8104 7.07068 18.8858 6.88867C18.9612 6.70666 19 6.51157 19 6.31456C19 6.11755 18.9612 5.92247 18.8858 5.74046C18.8104 5.55845 18.6999 5.39307 18.5606 5.25378ZM5.93994 17.8753H1.75025V13.6857L10.0003 5.43566L14.1899 9.62534L5.93994 17.8753ZM15.2503 8.56409L11.0606 4.37534L13.3106 2.12534L17.5003 6.31409L15.2503 8.56409Z" fill="#BE0017"/>
</svg>
