<svg width="40" height="41" viewBox="0 0 40 41" fill="none" xmlns="http://www.w3.org/2000/svg">
<path id="Vector" d="M20 0.5C16.0444 0.5 12.1776 1.67298 8.8886 3.87061C5.59962 6.06823 3.03617 9.19181 1.52242 12.8463C0.00866569 16.5008 -0.387401 20.5222 0.384303 24.4018C1.15601 28.2814 3.06082 31.8451 5.85787 34.6421C8.65492 37.4392 12.2186 39.344 16.0982 40.1157C19.9778 40.8874 23.9991 40.4913 27.6537 38.9776C31.3082 37.4638 34.4318 34.9004 36.6294 31.6114C38.827 28.3224 40 24.4556 40 20.5C39.9944 15.1974 37.8855 10.1136 34.136 6.36405C30.3864 2.61453 25.3026 0.5056 20 0.5ZM9.63078 33.8654C10.7437 32.1248 12.2769 30.6923 14.0891 29.7001C15.9012 28.7079 17.934 28.1878 20 28.1878C22.066 28.1878 24.0988 28.7079 25.9109 29.7001C27.7231 30.6923 29.2563 32.1248 30.3692 33.8654C27.4045 36.1711 23.7558 37.4229 20 37.4229C16.2442 37.4229 12.5955 36.1711 9.63078 33.8654ZM13.8462 18.9615C13.8462 17.7444 14.2071 16.5546 14.8833 15.5426C15.5595 14.5306 16.5206 13.7419 17.645 13.2761C18.7695 12.8104 20.0068 12.6885 21.2006 12.9259C22.3943 13.1634 23.4908 13.7495 24.3514 14.6101C25.2121 15.4707 25.7982 16.5672 26.0356 17.761C26.2731 18.9547 26.1512 20.192 25.6854 21.3165C25.2196 22.441 24.4309 23.4021 23.4189 24.0783C22.4069 24.7545 21.2171 25.1154 20 25.1154C18.3679 25.1154 16.8026 24.467 15.6486 23.313C14.4945 22.1589 13.8462 20.5936 13.8462 18.9615ZM32.6462 31.7327C30.9303 29.2463 28.5177 27.3227 25.7115 26.2038C27.2189 25.0166 28.3188 23.3892 28.8583 21.5479C29.3979 19.7066 29.3502 17.7429 28.722 15.9299C28.0937 14.1169 26.9161 12.5448 25.353 11.4321C23.7898 10.3194 21.9187 9.72149 20 9.72149C18.0813 9.72149 16.2102 10.3194 14.647 11.4321C13.0839 12.5448 11.9063 14.1169 11.2781 15.9299C10.6498 17.7429 10.6021 19.7066 11.1417 21.5479C11.6812 23.3892 12.7811 25.0166 14.2885 26.2038C11.4823 27.3227 9.06968 29.2463 7.35385 31.7327C5.18572 29.2945 3.76861 26.2816 3.27317 23.0567C2.77774 19.8318 3.2251 16.5325 4.56139 13.556C5.89768 10.5794 8.06592 8.05265 10.805 6.27988C13.5441 4.50711 16.7373 3.56393 20 3.56393C23.2627 3.56393 26.4559 4.50711 29.195 6.27988C31.9341 8.05265 34.1023 10.5794 35.4386 13.556C36.7749 16.5325 37.2223 19.8318 36.7268 23.0567C36.2314 26.2816 34.8143 29.2945 32.6462 31.7327Z" fill="#BE0017"/>
</svg>
