<svg width="25" height="26" viewBox="0 0 25 26" fill="none" xmlns="http://www.w3.org/2000/svg">
<path d="M19.6638 15.024L15.8176 13.101C15.6662 13.0255 15.4976 12.9913 15.3288 13.0019C15.16 13.0125 14.9969 13.0674 14.8561 13.1611L13.0905 14.3389C12.28 13.8934 11.613 13.2264 11.1674 12.4159L12.3453 10.6502C12.439 10.5094 12.4939 10.3464 12.5044 10.1775C12.515 10.0087 12.4808 9.8401 12.4054 9.6887L10.4823 5.84255C10.4026 5.68158 10.2794 5.54615 10.1266 5.45162C9.9739 5.35708 9.79774 5.30723 9.61811 5.30769C8.34303 5.30769 7.12018 5.81422 6.21856 6.71583C5.31694 7.61745 4.81042 8.84031 4.81042 10.1154C4.8136 12.9196 5.92897 15.608 7.91184 17.5909C9.89471 19.5738 12.5831 20.6891 15.3873 20.6923C16.0187 20.6923 16.6439 20.568 17.2272 20.3263C17.8105 20.0847 18.3405 19.7306 18.7869 19.2842C19.2333 18.8377 19.5875 18.3077 19.8291 17.7244C20.0707 17.1411 20.195 16.516 20.195 15.8846C20.1952 15.706 20.1455 15.5308 20.0517 15.3788C19.9579 15.2268 19.8235 15.104 19.6638 15.024ZM15.3873 18.7692C13.093 18.7667 10.8933 17.8541 9.27096 16.2318C7.6486 14.6094 6.73604 12.4097 6.7335 10.1154C6.73331 9.44846 6.96422 8.80208 7.38694 8.28623C7.80965 7.77038 8.39805 7.41694 9.05201 7.28606L10.4318 10.0505L9.25754 11.7981C9.16979 11.9297 9.11587 12.081 9.10056 12.2384C9.08526 12.3959 9.10904 12.5547 9.1698 12.7007C9.85776 14.3358 11.1585 15.6366 12.7936 16.3245C12.9401 16.388 13.1001 16.414 13.2592 16.4001C13.4182 16.3863 13.5713 16.333 13.7047 16.2452L15.4607 15.0745L18.2251 16.4543C18.0932 17.109 17.7382 17.6977 17.2207 18.1199C16.7032 18.542 16.0552 18.7715 15.3873 18.7692ZM12.5027 0.5C10.3446 0.499529 8.22318 1.0578 6.34486 2.12047C4.46654 3.18314 2.89533 4.714 1.78419 6.56406C0.673037 8.41412 0.0597976 10.5203 0.00415618 12.6777C-0.0514852 14.8351 0.452367 16.9701 1.46667 18.875L0.102488 22.9675C-0.0105112 23.3064 -0.0269101 23.67 0.0551296 24.0176C0.137169 24.3653 0.314405 24.6832 0.566973 24.9358C0.81954 25.1883 1.13746 25.3656 1.48509 25.4476C1.83273 25.5296 2.19634 25.5132 2.53518 25.4002L6.62773 24.0361C8.30413 24.9277 10.1616 25.4257 12.0593 25.4923C13.9569 25.5589 15.8447 25.1923 17.5795 24.4204C19.3143 23.6484 20.8504 22.4914 22.0712 21.0371C23.2921 19.5829 24.1656 17.8696 24.6255 16.0273C25.0853 14.1851 25.1195 12.2623 24.7252 10.4049C24.331 8.54744 23.5189 6.80425 22.3504 5.30759C21.1819 3.81093 19.6878 2.60014 17.9815 1.76713C16.2752 0.934121 14.4015 0.500779 12.5027 0.5ZM12.5027 23.5769C10.6433 23.5782 8.81655 23.0885 7.20706 22.1575C7.08921 22.0891 6.9582 22.0466 6.82268 22.0327C6.68717 22.0188 6.55025 22.0339 6.421 22.0769L1.92581 23.5769L3.4246 19.0817C3.46781 18.9526 3.48308 18.8157 3.4694 18.6802C3.45573 18.5447 3.41342 18.4136 3.34528 18.2957C2.17938 16.2799 1.71127 13.9358 2.01358 11.6269C2.31589 9.31796 3.37171 7.17334 5.01726 5.52571C6.6628 3.87809 8.80609 2.81956 11.1146 2.51433C13.4232 2.20911 15.7679 2.67425 17.7851 3.8376C19.8023 5.00095 21.3792 6.79749 22.2712 8.9485C23.1632 11.0995 23.3204 13.4848 22.7184 15.7342C22.1164 17.9837 20.7889 19.9717 18.9418 21.3897C17.0948 22.8077 14.8314 23.5765 12.5027 23.5769Z" fill="#25D366"/>
</svg>
